<svg version="1.1" id="Layer_1" xmlns="http://www.w3.org/2000/svg" xmlns:xlink="http://www.w3.org/1999/xlink" x="0px" y="0px"
	 width="100%" viewBox="0 0 1024 1024" enable-background="new 0 0 1024 1024" xml:space="preserve">
<path fill="#FFFFFF" opacity="1.000000" stroke="none" 
	d="
M568.000000,1025.000000 
	C378.666656,1025.000000 189.833328,1025.000000 1.000000,1025.000000 
	C1.000000,683.666687 1.000000,342.333344 1.000000,1.000000 
	C342.333344,1.000000 683.666687,1.000000 1025.000000,1.000000 
	C1025.000000,342.333344 1025.000000,683.666687 1025.000000,1025.000000 
	C872.833313,1025.000000 720.666687,1025.000000 568.000000,1025.000000 
M6.993519,530.533936 
	C6.159316,536.375610 5.325112,542.217346 4.424981,548.520691 
	C15.811508,548.520691 26.291836,548.334229 36.759121,548.622070 
	C40.410789,548.722473 41.874714,547.365051 43.220520,544.173645 
	C59.083977,506.555542 75.175499,469.033478 90.985748,431.393250 
	C92.616058,427.511902 94.614487,426.369385 98.672966,426.423584 
	C115.831497,426.652649 132.997742,426.693298 150.154526,426.406006 
	C154.762787,426.328827 157.076874,427.632904 158.952988,431.994446 
	C175.084930,469.497589 191.541565,506.861023 207.713425,544.347168 
	C209.149094,547.675049 210.846359,548.658630 214.314468,548.601562 
	C226.807388,548.395752 239.305756,548.528320 251.802032,548.511230 
	C253.399109,548.509033 254.996017,548.378113 256.869568,548.294495 
	C256.869568,541.354370 256.869568,534.968384 256.869568,528.479370 
	C253.134048,528.479370 249.781204,528.237488 246.478546,528.541321 
	C242.466141,528.910522 240.452530,527.629639 238.763168,523.636719 
	C222.856567,486.040405 206.613235,448.586639 190.598099,411.035858 
	C189.335541,408.075500 187.881439,406.678864 184.536041,406.560974 
	C169.728378,406.039337 154.930161,404.716705 140.127899,404.707520 
	C120.656708,404.695404 101.186447,405.715607 81.712265,406.123901 
	C77.168442,406.219177 74.825180,408.128204 72.999039,412.331512 
	C56.863594,449.471100 40.410213,486.472626 24.310163,523.627380 
	C22.608379,527.554688 20.617105,528.795105 16.576086,528.591736 
	C13.450089,528.434326 10.273099,529.290222 6.993519,530.533936 
M69.270645,502.733246 
	C62.873062,517.794556 56.475479,532.855835 49.950066,548.218079 
	C69.993713,548.218079 89.521492,548.218079 109.498291,548.218079 
	C109.498291,542.369202 109.498291,536.817627 109.498291,530.910034 
	C102.010025,530.910034 94.601967,530.910034 86.655502,530.910034 
	C88.228638,527.093933 89.346924,523.618469 91.094414,520.495117 
	C91.857025,519.132080 93.898254,517.666199 95.376595,517.647461 
	C111.363365,517.444641 127.354111,517.471863 143.342209,517.613159 
	C144.639740,517.624573 146.534180,518.620789 147.104782,519.708435 
	C148.928253,523.184021 150.258621,526.918335 151.945419,530.949646 
	C144.344955,530.949646 137.234787,530.949646 129.570587,530.949646 
	C128.835403,536.944275 128.124817,542.738464 127.408249,548.581299 
	C152.093765,548.581299 175.976456,548.581299 200.157608,548.581299 
	C199.929398,547.647095 199.865921,546.993225 199.616043,546.420654 
	C183.624115,509.775726 167.650574,473.122620 151.486771,436.553619 
	C150.851089,435.115479 148.398956,433.636932 146.771332,433.612122 
	C131.951309,433.386353 117.124962,433.384796 102.305122,433.616669 
	C100.711159,433.641632 98.326096,435.207550 97.692001,436.662048 
	C88.211967,458.406891 78.964874,480.253235 69.270645,502.733246 
M906.375244,567.969177 
	C908.513733,567.969177 910.652222,567.969177 912.826538,567.969177 
	C911.525818,575.963135 907.343079,580.373047 898.644836,580.879944 
	C886.367554,581.595398 874.032043,581.528320 861.724854,581.416321 
	C855.951965,581.363708 850.187134,580.424500 843.995300,579.847595 
	C842.397461,587.616638 840.872864,595.029358 839.307373,602.640930 
	C840.524170,602.940308 841.137268,603.200195 841.760986,603.228760 
	C861.200928,604.121338 880.638550,605.519104 900.084167,605.642456 
	C909.823975,605.704346 919.072937,602.054199 926.323364,594.988220 
	C939.013245,582.621338 944.555420,566.413818 950.671814,549.828247 
	C932.317078,549.828247 914.669128,549.660706 897.028748,549.952698 
	C892.908936,550.020874 891.326416,548.629150 890.016418,544.961548 
	C881.641907,521.514893 873.064392,498.140167 864.404846,474.796967 
	C863.847412,473.294403 862.069397,471.188385 860.820740,471.161743 
	C848.189819,470.891968 835.550842,470.997223 822.457764,470.997223 
	C822.457764,477.206726 822.457764,483.066437 822.457764,489.154266 
	C826.354126,489.154266 830.001099,489.154266 833.590942,489.154266 
	C843.053345,513.676208 852.474304,537.974121 861.756104,562.325073 
	C862.689392,564.773376 863.741943,566.235596 866.533875,566.340698 
	C879.492493,566.828430 892.447083,567.426270 906.375244,567.969177 
M361.963562,527.328918 
	C361.963562,517.853333 361.963562,508.377747 361.963562,497.827942 
	C381.180481,497.827942 400.083557,497.827942 419.389374,497.827942 
	C421.149658,488.615906 422.725616,480.368408 424.361816,471.805817 
	C401.142975,469.505676 378.804016,470.281708 356.373016,475.341980 
	C353.604462,466.002197 351.057770,456.922516 348.120300,447.971100 
	C347.617920,446.440125 345.456177,444.392242 344.044434,444.379242 
	C320.230896,444.159454 296.414398,444.180695 272.600006,444.350372 
	C271.354797,444.359222 269.295746,445.980377 269.025940,447.170654 
	C267.799774,452.579559 267.079285,458.103088 266.080811,464.169189 
	C287.109528,464.169189 307.339783,464.169189 327.850952,464.169189 
	C327.850952,493.430573 327.850952,522.212341 327.850952,551.254639 
	C351.365143,551.254639 374.588623,551.254639 398.451904,551.254639 
	C398.451904,544.454346 398.451904,537.898010 398.451904,529.994751 
	C387.685150,529.994751 376.732666,530.050232 365.782379,529.919922 
	C364.504669,529.904785 363.239166,528.863159 361.963562,527.328918 
M964.591919,508.185913 
	C968.655518,495.917358 972.719116,483.648834 976.859985,471.146851 
	C958.744873,471.146851 940.957214,471.146851 922.703918,471.146851 
	C922.366333,476.985199 922.033813,482.736389 921.673950,488.959900 
	C928.288147,488.959900 934.516235,488.959900 941.254089,488.959900 
	C936.844482,501.548645 932.668518,513.589111 928.369141,525.585449 
	C927.865112,526.991882 926.681519,528.154785 925.813049,529.430664 
	C924.860657,528.083496 923.506287,526.867859 923.015564,525.369507 
	C914.648010,499.816956 906.328979,474.247925 898.177856,448.625702 
	C897.170593,445.459534 895.854431,444.077881 892.380859,444.070282 
	C878.891602,444.040771 865.403503,443.671600 851.913940,443.523346 
	C843.456726,443.430389 834.997620,443.506042 826.280762,443.506042 
	C825.010925,451.067596 823.957764,457.338562 822.835876,464.019043 
	C838.639465,464.019043 853.751465,464.019043 869.046814,464.019043 
	C878.505737,490.627869 887.889404,517.024841 897.260132,543.385620 
	C915.907227,543.385620 934.207703,543.385620 952.844666,543.385620 
	C956.648438,531.880005 960.447021,520.390259 964.591919,508.185913 
M974.334167,582.917419 
	C985.695618,551.748291 997.057068,520.579163 1008.593750,488.929260 
	C1011.934326,488.929260 1015.708740,488.929260 1019.722473,488.929260 
	C1020.663452,482.893494 1021.551086,477.199768 1022.480591,471.237366 
	C1009.795349,471.237366 997.550415,471.237366 985.315247,471.237366 
	C978.465820,491.239227 971.958862,511.118500 964.837280,530.775208 
	C958.514099,548.228149 952.308167,565.800293 944.586914,582.649109 
	C936.347290,600.629272 921.930603,611.857117 901.535095,612.801697 
	C887.430969,613.454773 873.255249,612.785278 859.118896,612.421204 
	C852.344727,612.246704 845.587585,611.410278 838.157837,610.820862 
	C838.157837,617.835022 838.157837,624.378540 838.157837,631.053162 
	C838.499817,631.155090 838.961426,631.374695 839.440430,631.423645 
	C865.159058,634.048889 890.938416,635.819275 916.707703,632.796936 
	C936.769714,630.443909 952.972412,621.101562 963.546387,603.394897 
	C967.367432,596.996277 970.570068,590.228333 974.334167,582.917419 
M534.184570,557.833374 
	C525.527161,557.877502 516.853210,558.285095 508.215485,557.894165 
	C486.559448,556.914185 477.058594,547.613037 476.276367,525.929749 
	C475.675964,509.287201 476.058167,492.609161 476.004730,475.946930 
	C475.999603,474.354279 476.004059,472.761627 476.004059,471.179688 
	C459.272858,471.179688 443.155579,471.179688 426.554443,471.179688 
	C426.269440,477.078278 425.992126,482.816925 425.682800,489.218262 
	C431.415009,489.218262 436.639954,489.218262 441.586243,489.218262 
	C441.586243,497.844269 441.309174,505.841400 441.649506,513.812134 
	C442.194946,526.585510 442.374939,539.449463 444.135254,552.076294 
	C446.144745,566.490356 455.554993,575.045410 469.718628,577.812378 
	C476.872162,579.209778 484.207733,579.973206 491.494995,580.330872 
	C511.327454,581.304016 531.064941,580.313049 550.515991,575.967773 
	C552.100403,575.613831 554.518921,574.592896 554.782654,573.467651 
	C556.121826,567.754211 556.877808,561.904114 557.911377,555.659363 
	C549.671509,556.444214 542.398071,557.136963 534.184570,557.833374 
M666.826782,454.423126 
	C666.826782,451.174591 666.826782,447.926086 666.826782,444.268341 
	C635.127808,444.268341 603.760559,444.268341 572.172058,444.268341 
	C571.112061,451.182159 570.165710,457.354370 569.119690,464.177002 
	C589.801270,464.177002 609.988586,464.177002 630.467773,464.177002 
	C630.467773,493.518219 630.467773,522.270630 630.467773,551.272156 
	C646.841614,551.272156 662.909424,551.272156 679.547241,551.272156 
	C679.547241,544.506104 679.547241,537.960876 679.547241,530.815857 
	C674.731750,530.815857 669.703491,530.815857 663.697815,530.815857 
	C664.737427,505.253876 665.751648,480.317383 666.826782,454.423126 
M529.813843,489.175079 
	C537.593567,489.175079 545.373291,489.175079 553.507690,489.175079 
	C554.481262,482.900146 555.362793,477.218475 556.292114,471.229034 
	C531.707947,471.229034 507.644287,471.229034 484.068817,471.229034 
	C484.068817,491.553314 483.526184,511.666229 484.291107,531.729309 
	C484.690582,542.206238 491.184692,548.173584 501.733337,550.004028 
	C519.824951,553.143311 537.886841,551.429871 555.868164,548.692017 
	C556.866577,548.539978 558.350403,546.937561 558.397705,545.952209 
	C558.649902,540.695068 558.516479,535.419434 558.516479,531.143494 
	C547.979553,531.143494 537.518372,531.289978 527.064575,531.078308 
	C522.232422,530.980530 518.244690,528.305176 518.027039,523.412598 
	C517.529785,512.234192 517.869934,501.018555 517.869934,489.712250 
	C521.584229,489.531097 525.229065,489.353363 529.813843,489.175079 
M721.629822,404.115540 
	C709.630493,415.542084 709.010193,430.510376 708.934509,446.079498 
	C704.448059,446.079498 700.147949,445.914581 695.874451,446.179016 
	C694.575684,446.259338 692.453613,447.324860 692.240967,448.280151 
	C691.112244,453.351990 690.471069,458.532379 689.647400,463.761719 
	C708.166626,463.761719 725.909607,463.761719 743.984253,463.761719 
	C743.984253,455.397949 743.913452,447.272949 743.999023,439.149597 
	C744.173767,422.569763 751.196472,413.443268 767.383484,409.831299 
	C773.986816,408.357849 780.880493,407.844177 787.666748,407.611725 
	C798.086304,407.254852 808.527100,407.517914 819.382202,407.517914 
	C819.382202,403.098480 819.382202,397.663086 819.382202,391.967804 
	C816.710266,391.680725 814.070679,391.131897 811.436462,391.156708 
	C792.810486,391.332031 774.158752,391.106018 755.570068,392.066681 
	C743.574890,392.686523 731.931946,395.836792 721.629822,404.115540 
M795.530029,530.994263 
	C792.124390,530.994263 788.718750,530.994263 785.410522,530.994263 
	C785.410522,516.913025 785.410522,503.633972 785.410522,489.550720 
	C793.997498,489.550720 802.399414,489.550720 811.102539,489.550720 
	C811.988831,482.982025 812.773621,477.165070 813.563721,471.309387 
	C792.370056,471.309387 771.809509,471.309387 751.191528,471.309387 
	C751.191528,498.073273 751.191528,524.521790 751.191528,551.244141 
	C771.096191,551.244141 790.856506,551.244141 810.974609,551.244141 
	C811.288757,544.600830 811.599487,538.031311 811.932251,530.994263 
	C806.431091,530.994263 801.475647,530.994263 795.530029,530.994263 
M320.674957,486.505127 
	C320.674957,481.395813 320.674957,476.286499 320.674957,471.304840 
	C301.953522,471.304840 283.877258,471.304840 265.363159,471.304840 
	C265.363159,477.339172 265.363159,483.061096 265.363159,489.234436 
	C272.409088,489.234436 279.319122,489.234436 286.067352,489.234436 
	C286.067352,503.129150 286.067352,516.577454 286.067352,530.268738 
	C281.424469,530.563660 277.010529,530.844055 272.216705,531.148560 
	C271.154236,537.914490 270.131226,544.429260 269.065857,551.213501 
	C286.483948,551.213501 303.385925,551.213501 320.674835,551.213501 
	C320.674835,529.767944 320.674835,508.635498 320.674957,486.505127 
M743.978333,546.296265 
	C743.978333,521.229187 743.978333,496.162109 743.978333,471.235565 
	C725.337341,471.235565 707.402649,471.235565 689.138062,471.235565 
	C689.138062,477.229706 689.138062,482.990845 689.138062,489.049530 
	C695.988708,489.374329 702.853516,489.699829 709.488159,490.014404 
	C709.488159,504.052063 709.488159,517.450439 709.488159,531.156128 
	C704.352478,531.156128 699.566711,531.156128 694.415710,531.156128 
	C693.475891,537.943481 692.572388,544.468628 691.627441,551.292969 
	C709.329163,551.292969 726.423706,551.292969 743.775513,551.292969 
	C743.849182,549.821777 743.913757,548.532288 743.978333,546.296265 
M594.500000,470.995758 
	C586.022461,470.995758 577.544861,470.995758 568.456787,470.995758 
	C568.456787,477.173126 568.456787,483.050079 568.456787,488.923798 
	C575.242676,489.334930 582.004028,489.744568 588.739014,490.152618 
	C588.739014,503.930481 588.739014,517.331299 588.739014,531.062012 
	C583.700989,531.062012 578.921997,531.062012 573.983154,531.062012 
	C573.066589,537.912109 572.191040,544.456055 571.294617,551.156128 
	C588.829590,551.156128 605.863342,551.156128 622.791260,551.156128 
	C622.791260,524.247864 622.791260,497.700104 622.791260,470.995758 
	C613.464478,470.995758 604.482239,470.995758 594.500000,470.995758 
M208.500244,555.458496 
	C181.409592,555.458496 154.318954,555.458496 126.741768,555.458496 
	C126.741768,562.338318 126.741768,568.733398 126.741768,575.859680 
	C129.443787,575.859680 132.070755,575.829041 134.696777,575.865051 
	C145.685928,576.015808 156.675308,576.352417 167.663635,576.317322 
	C194.803238,576.230713 221.942657,576.008362 249.080688,575.707642 
	C250.602264,575.690796 253.244415,574.711365 253.440277,573.776611 
	C254.678207,567.868591 255.372696,561.846619 256.305511,555.458496 
	C240.103210,555.458496 224.801727,555.458496 208.500244,555.458496 
M763.512390,464.004791 
	C780.307556,464.004791 797.102661,464.004791 814.252502,464.004791 
	C814.252502,458.302490 814.252502,452.873840 814.252502,446.506836 
	C804.485107,446.506836 794.765381,446.506836 785.126404,446.506836 
	C784.606384,438.209564 786.802124,434.811096 794.151855,434.092041 
	C801.195190,433.402985 808.358765,433.943237 815.954773,433.943237 
	C816.931213,427.601929 817.850525,421.631897 819.009644,414.104401 
	C803.844543,414.104401 789.403870,413.436920 775.055420,414.300812 
	C761.922607,415.091553 753.925720,421.270477 752.428650,431.616364 
	C750.899841,442.181396 751.107605,452.997772 750.539612,464.004791 
	C755.244507,464.004791 758.881836,464.004791 763.512390,464.004791 
M484.160828,447.616364 
	C484.160828,453.015106 484.160828,458.413818 484.160828,463.797546 
	C508.228882,463.797546 532.302551,463.797546 556.697693,463.797546 
	C557.084961,457.407776 557.460876,451.205597 557.897156,444.007812 
	C544.388367,444.007812 531.369507,444.007812 518.169189,444.007812 
	C518.169189,433.762817 518.169189,424.485809 518.169189,414.353210 
	C507.440796,414.353210 496.902679,414.353210 486.087677,414.353210 
	C485.467499,424.819916 484.820496,435.739563 484.160828,447.616364 
M276.560638,575.989441 
	C314.040924,575.932678 351.521271,575.824219 389.001312,575.894287 
	C393.013885,575.901794 395.182129,574.787537 395.667175,570.625549 
	C396.142212,566.549622 396.987396,562.516846 397.714478,558.202026 
	C354.554443,558.202026 311.788300,558.202026 268.549347,558.202026 
	C268.273224,563.926208 268.003571,569.516663 267.713135,575.537476 
	C270.662079,575.691223 273.126678,575.819702 276.560638,575.989441 
M107.454216,566.106445 
	C107.818062,562.706116 108.181908,559.305725 108.571907,555.660950 
	C73.437073,555.660950 38.887218,555.660950 3.768990,555.660950 
	C3.768990,562.152222 3.768990,568.557129 3.768990,575.757141 
	C37.579575,575.757141 71.581810,575.757141 105.768066,575.757141 
	C106.326637,572.487854 106.799461,569.720459 107.454216,566.106445 
M731.500000,557.992676 
	C718.087463,557.992676 704.674927,557.992676 691.217957,557.992676 
	C690.864929,564.105225 690.550720,569.545288 690.210449,575.437256 
	C692.471497,575.581665 694.425720,575.775818 696.383423,575.819824 
	C705.865845,576.033325 715.349854,576.396606 724.831909,576.357605 
	C751.120544,576.249573 777.408936,576.004883 803.695312,575.652466 
	C805.096863,575.633667 807.430542,574.369263 807.705627,573.275879 
	C808.935669,568.386902 809.576111,563.349609 810.493347,557.992676 
	C784.049988,557.992676 758.275024,557.992676 731.500000,557.992676 
M964.500549,443.155701 
	C957.345276,443.369049 950.176758,443.383057 943.039062,443.859375 
	C937.420105,444.234375 929.783813,443.235260 926.794922,446.395020 
	C923.526978,449.849792 924.570801,457.384399 923.747314,463.142517 
	C923.729309,463.268860 923.855530,463.415894 923.951294,463.639404 
	C956.914795,463.639404 989.913940,463.639404 1022.934692,463.639404 
	C1023.231384,457.169128 1023.511169,451.067078 1023.833740,444.031006 
	C1004.020081,443.733643 984.760193,443.444611 964.500549,443.155701 
M642.500000,557.994263 
	C618.703613,557.994263 594.907227,557.994263 570.715820,557.994263 
	C570.395935,563.880005 570.091431,569.482544 569.760986,575.562439 
	C572.516418,575.700745 574.806335,575.867310 577.098877,575.921997 
	C587.584351,576.172180 598.071899,576.631775 608.556091,576.570618 
	C630.030151,576.445435 651.503296,576.073547 672.973511,575.638428 
	C674.178833,575.614075 676.170166,574.284119 676.404053,573.247742 
	C677.513367,568.332581 678.139404,563.308411 678.990173,557.994263 
	C666.782349,557.994263 655.141174,557.994263 642.500000,557.994263 
M467.047272,413.821014 
	C463.557373,413.938446 460.062897,414.224182 456.578766,414.129761 
	C452.440338,414.017548 450.545868,415.548157 449.895386,419.914276 
	C448.685425,428.035583 446.725464,436.045166 445.108124,443.952515 
	C439.854889,444.219208 435.246521,444.453186 430.281097,444.705292 
	C429.291809,451.147614 428.343628,457.322235 427.351410,463.783722 
	C443.729858,463.783722 459.636444,463.783722 475.994873,463.783722 
	C476.834717,447.096222 477.670929,430.480347 478.513794,413.732635 
	C474.546753,413.732635 471.253296,413.732635 467.047272,413.821014 
M636.500000,432.004242 
	C646.148132,432.004242 655.796265,432.004242 665.880371,432.004242 
	C667.081116,425.685547 668.169373,419.958710 669.302368,413.996460 
	C641.377747,413.996460 614.271606,413.996460 586.581970,413.996460 
	C586.581970,419.850525 586.581970,425.545441 586.581970,432.004242 
	C602.906860,432.004242 619.203430,432.004242 636.500000,432.004242 
M590.668884,392.046448 
	C589.526917,396.840790 588.384888,401.635132 587.175171,406.713989 
	C615.210632,406.713989 642.568420,406.713989 670.130676,406.713989 
	C670.462769,401.208954 670.778015,395.984344 671.090759,390.799988 
	C669.918579,390.543579 669.442322,390.348999 668.965637,390.348083 
	C644.013062,390.301239 619.060547,390.258270 594.108032,390.282471 
	C593.065125,390.283478 592.022949,390.927185 590.668884,392.046448 
M401.505005,441.819427 
	C397.676208,441.936584 393.833130,441.882812 390.021210,442.201691 
	C376.385925,443.342316 363.908295,454.352936 361.501678,467.400879 
	C382.343567,462.667633 403.383362,463.065735 424.788635,464.650757 
	C425.139282,457.215820 425.466187,450.283813 425.825165,442.672089 
	C417.749451,442.376831 410.126251,442.098114 401.505005,441.819427 
z"/>
<path fill="#040404" opacity="1.000000" stroke="none" 
	d="
M7.056149,530.114807 
	C10.273099,529.290222 13.450089,528.434326 16.576086,528.591736 
	C20.617105,528.795105 22.608379,527.554688 24.310163,523.627380 
	C40.410213,486.472626 56.863594,449.471100 72.999039,412.331512 
	C74.825180,408.128204 77.168442,406.219177 81.712265,406.123901 
	C101.186447,405.715607 120.656708,404.695404 140.127899,404.707520 
	C154.930161,404.716705 169.728378,406.039337 184.536041,406.560974 
	C187.881439,406.678864 189.335541,408.075500 190.598099,411.035858 
	C206.613235,448.586639 222.856567,486.040405 238.763168,523.636719 
	C240.452530,527.629639 242.466141,528.910522 246.478546,528.541321 
	C249.781204,528.237488 253.134048,528.479370 256.869568,528.479370 
	C256.869568,534.968384 256.869568,541.354370 256.869568,548.294495 
	C254.996017,548.378113 253.399109,548.509033 251.802032,548.511230 
	C239.305756,548.528320 226.807388,548.395752 214.314468,548.601562 
	C210.846359,548.658630 209.149094,547.675049 207.713425,544.347168 
	C191.541565,506.861023 175.084930,469.497589 158.952988,431.994446 
	C157.076874,427.632904 154.762787,426.328827 150.154526,426.406006 
	C132.997742,426.693298 115.831497,426.652649 98.672966,426.423584 
	C94.614487,426.369385 92.616058,427.511902 90.985748,431.393250 
	C75.175499,469.033478 59.083977,506.555542 43.220520,544.173645 
	C41.874714,547.365051 40.410789,548.722473 36.759121,548.622070 
	C26.291836,548.334229 15.811508,548.520691 4.424981,548.520691 
	C5.325112,542.217346 6.159316,536.375610 7.056149,530.114807 
z"/>
<path fill="#040404" opacity="1.000000" stroke="none" 
	d="
M69.466766,502.404480 
	C78.964874,480.253235 88.211967,458.406891 97.692001,436.662048 
	C98.326096,435.207550 100.711159,433.641632 102.305122,433.616669 
	C117.124962,433.384796 131.951309,433.386353 146.771332,433.612122 
	C148.398956,433.636932 150.851089,435.115479 151.486771,436.553619 
	C167.650574,473.122620 183.624115,509.775726 199.616043,546.420654 
	C199.865921,546.993225 199.929398,547.647095 200.157608,548.581299 
	C175.976456,548.581299 152.093765,548.581299 127.408249,548.581299 
	C128.124817,542.738464 128.835403,536.944275 129.570587,530.949646 
	C137.234787,530.949646 144.344955,530.949646 151.945419,530.949646 
	C150.258621,526.918335 148.928253,523.184021 147.104782,519.708435 
	C146.534180,518.620789 144.639740,517.624573 143.342209,517.613159 
	C127.354111,517.471863 111.363365,517.444641 95.376595,517.647461 
	C93.898254,517.666199 91.857025,519.132080 91.094414,520.495117 
	C89.346924,523.618469 88.228638,527.093933 86.655502,530.910034 
	C94.601967,530.910034 102.010025,530.910034 109.498291,530.910034 
	C109.498291,536.817627 109.498291,542.369202 109.498291,548.218079 
	C89.521492,548.218079 69.993713,548.218079 49.950066,548.218079 
	C56.475479,532.855835 62.873062,517.794556 69.466766,502.404480 
M120.487778,488.526306 
	C124.893448,488.526306 129.299118,488.526306 134.365082,488.526306 
	C129.788940,477.507690 125.494789,467.182831 121.214493,456.852234 
	C120.036156,454.008270 118.162148,454.015991 117.092957,456.513214 
	C112.635391,466.924438 108.480690,477.465332 103.984215,488.526245 
	C109.623878,488.526245 114.560539,488.526245 120.487778,488.526306 
z"/>
<path fill="#020202" opacity="1.000000" stroke="none" 
	d="
M905.889160,567.976929 
	C892.447083,567.426270 879.492493,566.828430 866.533875,566.340698 
	C863.741943,566.235596 862.689392,564.773376 861.756104,562.325073 
	C852.474304,537.974121 843.053345,513.676208 833.590942,489.154266 
	C830.001099,489.154266 826.354126,489.154266 822.457764,489.154266 
	C822.457764,483.066437 822.457764,477.206726 822.457764,470.997223 
	C835.550842,470.997223 848.189819,470.891968 860.820740,471.161743 
	C862.069397,471.188385 863.847412,473.294403 864.404846,474.796967 
	C873.064392,498.140167 881.641907,521.514893 890.016418,544.961548 
	C891.326416,548.629150 892.908936,550.020874 897.028748,549.952698 
	C914.669128,549.660706 932.317078,549.828247 950.671814,549.828247 
	C944.555420,566.413818 939.013245,582.621338 926.323364,594.988220 
	C919.072937,602.054199 909.823975,605.704346 900.084167,605.642456 
	C880.638550,605.519104 861.200928,604.121338 841.760986,603.228760 
	C841.137268,603.200195 840.524170,602.940308 839.307373,602.640930 
	C840.872864,595.029358 842.397461,587.616638 843.995300,579.847595 
	C850.187134,580.424500 855.951965,581.363708 861.724854,581.416321 
	C874.032043,581.528320 886.367554,581.595398 898.644836,580.879944 
	C907.343079,580.373047 911.525818,575.963135 912.826538,567.969177 
	C910.652222,567.969177 908.513733,567.969177 905.889160,567.976929 
z"/>
<path fill="#030303" opacity="1.000000" stroke="none" 
	d="
M361.965759,527.813110 
	C363.239166,528.863159 364.504669,529.904785 365.782379,529.919922 
	C376.732666,530.050232 387.685150,529.994751 398.451904,529.994751 
	C398.451904,537.898010 398.451904,544.454346 398.451904,551.254639 
	C374.588623,551.254639 351.365143,551.254639 327.850952,551.254639 
	C327.850952,522.212341 327.850952,493.430573 327.850952,464.169189 
	C307.339783,464.169189 287.109528,464.169189 266.080811,464.169189 
	C267.079285,458.103088 267.799774,452.579559 269.025940,447.170654 
	C269.295746,445.980377 271.354797,444.359222 272.600006,444.350372 
	C296.414398,444.180695 320.230896,444.159454 344.044434,444.379242 
	C345.456177,444.392242 347.617920,446.440125 348.120300,447.971100 
	C351.057770,456.922516 353.604462,466.002197 356.373016,475.341980 
	C378.804016,470.281708 401.142975,469.505676 424.361816,471.805817 
	C422.725616,480.368408 421.149658,488.615906 419.389374,497.827942 
	C400.083557,497.827942 381.180481,497.827942 361.963562,497.827942 
	C361.963562,508.377747 361.963562,517.853333 361.965759,527.813110 
z"/>
<path fill="#030303" opacity="1.000000" stroke="none" 
	d="
M964.418701,508.543213 
	C960.447021,520.390259 956.648438,531.880005 952.844666,543.385620 
	C934.207703,543.385620 915.907227,543.385620 897.260132,543.385620 
	C887.889404,517.024841 878.505737,490.627869 869.046814,464.019043 
	C853.751465,464.019043 838.639465,464.019043 822.835876,464.019043 
	C823.957764,457.338562 825.010925,451.067596 826.280762,443.506042 
	C834.997620,443.506042 843.456726,443.430389 851.913940,443.523346 
	C865.403503,443.671600 878.891602,444.040771 892.380859,444.070282 
	C895.854431,444.077881 897.170593,445.459534 898.177856,448.625702 
	C906.328979,474.247925 914.648010,499.816956 923.015564,525.369507 
	C923.506287,526.867859 924.860657,528.083496 925.812988,529.430664 
	C926.681519,528.154785 927.865112,526.991882 928.369141,525.585449 
	C932.668518,513.589111 936.844482,501.548645 941.254089,488.959900 
	C934.516235,488.959900 928.288147,488.959900 921.673950,488.959900 
	C922.033813,482.736389 922.366333,476.985199 922.703918,471.146851 
	C940.957214,471.146851 958.744873,471.146851 976.859985,471.146851 
	C972.719116,483.648834 968.655518,495.917358 964.418701,508.543213 
z"/>
<path fill="#030303" opacity="1.000000" stroke="none" 
	d="
M974.194519,583.273193 
	C970.570068,590.228333 967.367432,596.996277 963.546387,603.394897 
	C952.972412,621.101562 936.769714,630.443909 916.707703,632.796936 
	C890.938416,635.819275 865.159058,634.048889 839.440430,631.423645 
	C838.961426,631.374695 838.499817,631.155090 838.157837,631.053162 
	C838.157837,624.378540 838.157837,617.835022 838.157837,610.820862 
	C845.587585,611.410278 852.344727,612.246704 859.118896,612.421204 
	C873.255249,612.785278 887.430969,613.454773 901.535095,612.801697 
	C921.930603,611.857117 936.347290,600.629272 944.586914,582.649109 
	C952.308167,565.800293 958.514099,548.228149 964.837280,530.775208 
	C971.958862,511.118500 978.465820,491.239227 985.315247,471.237366 
	C997.550415,471.237366 1009.795349,471.237366 1022.480591,471.237366 
	C1021.551086,477.199768 1020.663452,482.893494 1019.722473,488.929260 
	C1015.708740,488.929260 1011.934326,488.929260 1008.593750,488.929260 
	C997.057068,520.579163 985.695618,551.748291 974.194519,583.273193 
z"/>
<path fill="#020202" opacity="1.000000" stroke="none" 
	d="
M534.654541,557.831543 
	C542.398071,557.136963 549.671509,556.444214 557.911377,555.659363 
	C556.877808,561.904114 556.121826,567.754211 554.782654,573.467651 
	C554.518921,574.592896 552.100403,575.613831 550.515991,575.967773 
	C531.064941,580.313049 511.327454,581.304016 491.494995,580.330872 
	C484.207733,579.973206 476.872162,579.209778 469.718628,577.812378 
	C455.554993,575.045410 446.144745,566.490356 444.135254,552.076294 
	C442.374939,539.449463 442.194946,526.585510 441.649506,513.812134 
	C441.309174,505.841400 441.586243,497.844269 441.586243,489.218262 
	C436.639954,489.218262 431.415009,489.218262 425.682800,489.218262 
	C425.992126,482.816925 426.269440,477.078278 426.554443,471.179688 
	C443.155579,471.179688 459.272858,471.179688 476.004059,471.179688 
	C476.004059,472.761627 475.999603,474.354279 476.004730,475.946930 
	C476.058167,492.609161 475.675964,509.287201 476.276367,525.929749 
	C477.058594,547.613037 486.559448,556.914185 508.215485,557.894165 
	C516.853210,558.285095 525.527161,557.877502 534.654541,557.831543 
z"/>
<path fill="#050505" opacity="1.000000" stroke="none" 
	d="
M666.796265,454.902008 
	C665.751648,480.317383 664.737427,505.253876 663.697815,530.815857 
	C669.703491,530.815857 674.731750,530.815857 679.547241,530.815857 
	C679.547241,537.960876 679.547241,544.506104 679.547241,551.272156 
	C662.909424,551.272156 646.841614,551.272156 630.467773,551.272156 
	C630.467773,522.270630 630.467773,493.518219 630.467773,464.177002 
	C609.988586,464.177002 589.801270,464.177002 569.119690,464.177002 
	C570.165710,457.354370 571.112061,451.182159 572.172058,444.268341 
	C603.760559,444.268341 635.127808,444.268341 666.826782,444.268341 
	C666.826782,447.926086 666.826782,451.174591 666.796265,454.902008 
z"/>
<path fill="#030303" opacity="1.000000" stroke="none" 
	d="
M529.343872,489.175354 
	C525.229065,489.353363 521.584229,489.531097 517.869934,489.712250 
	C517.869934,501.018555 517.529785,512.234192 518.027039,523.412598 
	C518.244690,528.305176 522.232422,530.980530 527.064575,531.078308 
	C537.518372,531.289978 547.979553,531.143494 558.516479,531.143494 
	C558.516479,535.419434 558.649902,540.695068 558.397705,545.952209 
	C558.350403,546.937561 556.866577,548.539978 555.868164,548.692017 
	C537.886841,551.429871 519.824951,553.143311 501.733337,550.004028 
	C491.184692,548.173584 484.690582,542.206238 484.291107,531.729309 
	C483.526184,511.666229 484.068817,491.553314 484.068817,471.229034 
	C507.644287,471.229034 531.707947,471.229034 556.292114,471.229034 
	C555.362793,477.218475 554.481262,482.900146 553.507690,489.175079 
	C545.373291,489.175079 537.593567,489.175079 529.343872,489.175354 
z"/>
<path fill="#030303" opacity="1.000000" stroke="none" 
	d="
M721.903687,403.885193 
	C731.931946,395.836792 743.574890,392.686523 755.570068,392.066681 
	C774.158752,391.106018 792.810486,391.332031 811.436462,391.156708 
	C814.070679,391.131897 816.710266,391.680725 819.382202,391.967804 
	C819.382202,397.663086 819.382202,403.098480 819.382202,407.517914 
	C808.527100,407.517914 798.086304,407.254852 787.666748,407.611725 
	C780.880493,407.844177 773.986816,408.357849 767.383484,409.831299 
	C751.196472,413.443268 744.173767,422.569763 743.999023,439.149597 
	C743.913452,447.272949 743.984253,455.397949 743.984253,463.761719 
	C725.909607,463.761719 708.166626,463.761719 689.647400,463.761719 
	C690.471069,458.532379 691.112244,453.351990 692.240967,448.280151 
	C692.453613,447.324860 694.575684,446.259338 695.874451,446.179016 
	C700.147949,445.914581 704.448059,446.079498 708.934509,446.079498 
	C709.010193,430.510376 709.630493,415.542084 721.903687,403.885193 
z"/>
<path fill="#030303" opacity="1.000000" stroke="none" 
	d="
M796.025146,530.994263 
	C801.475647,530.994263 806.431091,530.994263 811.932251,530.994263 
	C811.599487,538.031311 811.288757,544.600830 810.974609,551.244141 
	C790.856506,551.244141 771.096191,551.244141 751.191528,551.244141 
	C751.191528,524.521790 751.191528,498.073273 751.191528,471.309387 
	C771.809509,471.309387 792.370056,471.309387 813.563721,471.309387 
	C812.773621,477.165070 811.988831,482.982025 811.102539,489.550720 
	C802.399414,489.550720 793.997498,489.550720 785.410522,489.550720 
	C785.410522,503.633972 785.410522,516.913025 785.410522,530.994263 
	C788.718750,530.994263 792.124390,530.994263 796.025146,530.994263 
z"/>
<path fill="#060606" opacity="1.000000" stroke="none" 
	d="
M320.674896,487.004089 
	C320.674835,508.635498 320.674835,529.767944 320.674835,551.213501 
	C303.385925,551.213501 286.483948,551.213501 269.065857,551.213501 
	C270.131226,544.429260 271.154236,537.914490 272.216705,531.148560 
	C277.010529,530.844055 281.424469,530.563660 286.067352,530.268738 
	C286.067352,516.577454 286.067352,503.129150 286.067352,489.234436 
	C279.319122,489.234436 272.409088,489.234436 265.363159,489.234436 
	C265.363159,483.061096 265.363159,477.339172 265.363159,471.304840 
	C283.877258,471.304840 301.953522,471.304840 320.674957,471.304840 
	C320.674957,476.286499 320.674957,481.395813 320.674896,487.004089 
z"/>
<path fill="#030303" opacity="1.000000" stroke="none" 
	d="
M743.978333,546.769531 
	C743.913757,548.532288 743.849182,549.821777 743.775513,551.292969 
	C726.423706,551.292969 709.329163,551.292969 691.627441,551.292969 
	C692.572388,544.468628 693.475891,537.943481 694.415710,531.156128 
	C699.566711,531.156128 704.352478,531.156128 709.488159,531.156128 
	C709.488159,517.450439 709.488159,504.052063 709.488159,490.014404 
	C702.853516,489.699829 695.988708,489.374329 689.138062,489.049530 
	C689.138062,482.990845 689.138062,477.229706 689.138062,471.235565 
	C707.402649,471.235565 725.337341,471.235565 743.978333,471.235565 
	C743.978333,496.162109 743.978333,521.229187 743.978333,546.769531 
z"/>
<path fill="#020202" opacity="1.000000" stroke="none" 
	d="
M595.000000,470.995758 
	C604.482239,470.995758 613.464478,470.995758 622.791260,470.995758 
	C622.791260,497.700104 622.791260,524.247864 622.791260,551.156128 
	C605.863342,551.156128 588.829590,551.156128 571.294617,551.156128 
	C572.191040,544.456055 573.066589,537.912109 573.983154,531.062012 
	C578.921997,531.062012 583.700989,531.062012 588.739014,531.062012 
	C588.739014,517.331299 588.739014,503.930481 588.739014,490.152618 
	C582.004028,489.744568 575.242676,489.334930 568.456787,488.923798 
	C568.456787,483.050079 568.456787,477.173126 568.456787,470.995758 
	C577.544861,470.995758 586.022461,470.995758 595.000000,470.995758 
z"/>
<path fill="#090909" opacity="1.000000" stroke="none" 
	d="
M209.000244,555.458496 
	C224.801727,555.458496 240.103210,555.458496 256.305511,555.458496 
	C255.372696,561.846619 254.678207,567.868591 253.440277,573.776611 
	C253.244415,574.711365 250.602264,575.690796 249.080688,575.707642 
	C221.942657,576.008362 194.803238,576.230713 167.663635,576.317322 
	C156.675308,576.352417 145.685928,576.015808 134.696777,575.865051 
	C132.070755,575.829041 129.443787,575.859680 126.741768,575.859680 
	C126.741768,568.733398 126.741768,562.338318 126.741768,555.458496 
	C154.318954,555.458496 181.409592,555.458496 209.000244,555.458496 
z"/>
<path fill="#030303" opacity="1.000000" stroke="none" 
	d="
M763.015747,464.004791 
	C758.881836,464.004791 755.244507,464.004791 750.539612,464.004791 
	C751.107605,452.997772 750.899841,442.181396 752.428650,431.616364 
	C753.925720,421.270477 761.922607,415.091553 775.055420,414.300812 
	C789.403870,413.436920 803.844543,414.104401 819.009644,414.104401 
	C817.850525,421.631897 816.931213,427.601929 815.954773,433.943237 
	C808.358765,433.943237 801.195190,433.402985 794.151855,434.092041 
	C786.802124,434.811096 784.606384,438.209564 785.126404,446.506836 
	C794.765381,446.506836 804.485107,446.506836 814.252502,446.506836 
	C814.252502,452.873840 814.252502,458.302490 814.252502,464.004791 
	C797.102661,464.004791 780.307556,464.004791 763.015747,464.004791 
z"/>
<path fill="#020202" opacity="1.000000" stroke="none" 
	d="
M484.167175,447.137756 
	C484.820496,435.739563 485.467499,424.819916 486.087677,414.353210 
	C496.902679,414.353210 507.440796,414.353210 518.169189,414.353210 
	C518.169189,424.485809 518.169189,433.762817 518.169189,444.007812 
	C531.369507,444.007812 544.388367,444.007812 557.897156,444.007812 
	C557.460876,451.205597 557.084961,457.407776 556.697693,463.797546 
	C532.302551,463.797546 508.228882,463.797546 484.160828,463.797546 
	C484.160828,458.413818 484.160828,453.015106 484.167175,447.137756 
z"/>
<path fill="#030303" opacity="1.000000" stroke="none" 
	d="
M276.075958,575.968750 
	C273.126678,575.819702 270.662079,575.691223 267.713135,575.537476 
	C268.003571,569.516663 268.273224,563.926208 268.549347,558.202026 
	C311.788300,558.202026 354.554443,558.202026 397.714478,558.202026 
	C396.987396,562.516846 396.142212,566.549622 395.667175,570.625549 
	C395.182129,574.787537 393.013885,575.901794 389.001312,575.894287 
	C351.521271,575.824219 314.040924,575.932678 276.075958,575.968750 
z"/>
<path fill="#090909" opacity="1.000000" stroke="none" 
	d="
M107.363251,566.529724 
	C106.799461,569.720459 106.326637,572.487854 105.768066,575.757141 
	C71.581810,575.757141 37.579575,575.757141 3.768990,575.757141 
	C3.768990,568.557129 3.768990,562.152222 3.768990,555.660950 
	C38.887218,555.660950 73.437073,555.660950 108.571907,555.660950 
	C108.181908,559.305725 107.818062,562.706116 107.363251,566.529724 
z"/>
<path fill="#040404" opacity="1.000000" stroke="none" 
	d="
M732.000000,557.992676 
	C758.275024,557.992676 784.049988,557.992676 810.493347,557.992676 
	C809.576111,563.349609 808.935669,568.386902 807.705627,573.275879 
	C807.430542,574.369263 805.096863,575.633667 803.695312,575.652466 
	C777.408936,576.004883 751.120544,576.249573 724.831909,576.357605 
	C715.349854,576.396606 705.865845,576.033325 696.383423,575.819824 
	C694.425720,575.775818 692.471497,575.581665 690.210449,575.437256 
	C690.550720,569.545288 690.864929,564.105225 691.217957,557.992676 
	C704.674927,557.992676 718.087463,557.992676 732.000000,557.992676 
z"/>
<path fill="#030303" opacity="1.000000" stroke="none" 
	d="
M965.000488,443.155640 
	C984.760193,443.444611 1004.020081,443.733643 1023.833740,444.031006 
	C1023.511169,451.067078 1023.231384,457.169128 1022.934692,463.639404 
	C989.913940,463.639404 956.914795,463.639404 923.951294,463.639404 
	C923.855530,463.415894 923.729309,463.268860 923.747314,463.142517 
	C924.570801,457.384399 923.526978,449.849792 926.794922,446.395020 
	C929.783813,443.235260 937.420105,444.234375 943.039062,443.859375 
	C950.176758,443.383057 957.345276,443.369049 965.000488,443.155640 
z"/>
<path fill="#030303" opacity="1.000000" stroke="none" 
	d="
M643.000000,557.994263 
	C655.141174,557.994263 666.782349,557.994263 678.990173,557.994263 
	C678.139404,563.308411 677.513367,568.332581 676.404053,573.247742 
	C676.170166,574.284119 674.178833,575.614075 672.973511,575.638428 
	C651.503296,576.073547 630.030151,576.445435 608.556091,576.570618 
	C598.071899,576.631775 587.584351,576.172180 577.098877,575.921997 
	C574.806335,575.867310 572.516418,575.700745 569.760986,575.562439 
	C570.091431,569.482544 570.395935,563.880005 570.715820,557.994263 
	C594.907227,557.994263 618.703613,557.994263 643.000000,557.994263 
z"/>
<path fill="#030303" opacity="1.000000" stroke="none" 
	d="
M467.503540,413.776825 
	C471.253296,413.732635 474.546753,413.732635 478.513794,413.732635 
	C477.670929,430.480347 476.834717,447.096222 475.994873,463.783722 
	C459.636444,463.783722 443.729858,463.783722 427.351410,463.783722 
	C428.343628,457.322235 429.291809,451.147614 430.281097,444.705292 
	C435.246521,444.453186 439.854889,444.219208 445.108124,443.952515 
	C446.725464,436.045166 448.685425,428.035583 449.895386,419.914276 
	C450.545868,415.548157 452.440338,414.017548 456.578766,414.129761 
	C460.062897,414.224182 463.557373,413.938446 467.503540,413.776825 
z"/>
<path fill="#020202" opacity="1.000000" stroke="none" 
	d="
M636.000000,432.004242 
	C619.203430,432.004242 602.906860,432.004242 586.581970,432.004242 
	C586.581970,425.545441 586.581970,419.850525 586.581970,413.996460 
	C614.271606,413.996460 641.377747,413.996460 669.302368,413.996460 
	C668.169373,419.958710 667.081116,425.685547 665.880371,432.004242 
	C655.796265,432.004242 646.148132,432.004242 636.000000,432.004242 
z"/>
<path fill="#040404" opacity="1.000000" stroke="none" 
	d="
M590.824646,391.658936 
	C592.022949,390.927185 593.065125,390.283478 594.108032,390.282471 
	C619.060547,390.258270 644.013062,390.301239 668.965637,390.348083 
	C669.442322,390.348999 669.918579,390.543579 671.090759,390.799988 
	C670.778015,395.984344 670.462769,401.208954 670.130676,406.713989 
	C642.568420,406.713989 615.210632,406.713989 587.175171,406.713989 
	C588.384888,401.635132 589.526917,396.840790 590.824646,391.658936 
z"/>
<path fill="#050505" opacity="1.000000" stroke="none" 
	d="
M402.004028,441.819397 
	C410.126251,442.098114 417.749451,442.376831 425.825165,442.672089 
	C425.466187,450.283813 425.139282,457.215820 424.788635,464.650757 
	C403.383362,463.065735 382.343567,462.667633 361.501678,467.400879 
	C363.908295,454.352936 376.385925,443.342316 390.021210,442.201691 
	C393.833130,441.882812 397.676208,441.936584 402.004028,441.819397 
z"/>
<path fill="#F4F4F4" opacity="1.000000" stroke="none" 
	d="
M119.992485,488.526276 
	C114.560539,488.526245 109.623878,488.526245 103.984215,488.526245 
	C108.480690,477.465332 112.635391,466.924438 117.092957,456.513214 
	C118.162148,454.015991 120.036156,454.008270 121.214493,456.852234 
	C125.494789,467.182831 129.788940,477.507690 134.365082,488.526306 
	C129.299118,488.526306 124.893448,488.526306 119.992485,488.526276 
z"/>
</svg>